<svg width="2084" height="540" viewBox="0 0 2084 540" fill="none" xmlns="http://www.w3.org/2000/svg">
<rect y="83" width="457" height="457" rx="228.5" fill="#002540"/>
<path d="M226.804 180.5L28 306.5H99.2437L230.875 221.145L365.22 306.5H429L226.804 180.5Z" fill="white"/>
<path d="M226.804 442.5L28 316.5H99.2437L230.875 401.855L365.22 316.5H429L226.804 442.5Z" fill="#57CC98"/>
<ellipse cx="228.5" cy="384.5" rx="42.5" ry="29" fill="#57CC98"/>
<circle cx="227.5" cy="316" r="27.5" fill="#57CC98"/>
<path d="M362 435.359C363.22 430.126 364.5 420 364.5 420L369.5 420.654L372 435.359C370.438 437.646 366.375 439.934 362 435.359Z" fill="#57CC98"/>
<line x1="367" y1="334.5" x2="367" y2="413.5" stroke="#57CC98" stroke-width="8"/>
<circle cx="367" cy="416" r="9" fill="#57CC98"/>
<path d="M647.164 391.906L705.242 188.633H768.852L683.348 438H644.629L647.164 391.906ZM604.758 188.633L663.527 392.367L665.602 438H626.652L540.918 188.633H604.758ZM909.668 442.609C890.77 442.609 873.792 439.536 858.734 433.391C843.677 427.245 830.848 418.717 820.246 407.809C809.798 396.746 801.732 383.917 796.047 369.32C790.516 354.57 787.75 338.745 787.75 321.844V312.625C787.75 293.419 790.516 275.98 796.047 260.309C801.578 244.483 809.414 230.885 819.555 219.516C829.695 208.146 841.833 199.388 855.969 193.242C870.104 187.096 885.699 184.023 902.754 184.023C920.423 184.023 936.018 187.02 949.539 193.012C963.06 198.85 974.353 207.147 983.418 217.902C992.483 228.658 999.32 241.564 1003.93 256.621C1008.54 271.525 1010.84 288.042 1010.84 306.172V331.754H815.406V289.809H950.922V285.199C950.615 275.52 948.771 266.685 945.391 258.695C942.01 250.552 936.786 244.099 929.719 239.336C922.651 234.419 913.509 231.961 902.293 231.961C893.228 231.961 885.315 233.958 878.555 237.953C871.948 241.794 866.417 247.326 861.961 254.547C857.659 261.615 854.432 270.065 852.281 279.898C850.13 289.732 849.055 300.641 849.055 312.625V321.844C849.055 332.292 850.438 341.971 853.203 350.883C856.122 359.794 860.348 367.553 865.879 374.16C871.564 380.613 878.324 385.684 886.16 389.371C894.15 392.905 903.215 394.672 913.355 394.672C926.108 394.672 937.632 392.214 947.926 387.297C958.374 382.227 967.439 374.775 975.121 364.941L1005.77 396.746C1000.55 404.428 993.482 411.803 984.57 418.871C975.812 425.939 965.211 431.701 952.766 436.156C940.32 440.458 925.954 442.609 909.668 442.609ZM1112.48 239.566V438H1051.64V188.633H1109.25L1112.48 239.566ZM1188.3 187.02L1187.38 243.715C1184 243.1 1180.16 242.639 1175.86 242.332C1171.71 242.025 1167.79 241.871 1164.11 241.871C1154.73 241.871 1146.51 243.177 1139.45 245.789C1132.38 248.247 1126.46 251.858 1121.7 256.621C1117.09 261.384 1113.56 267.223 1111.1 274.137C1108.64 280.897 1107.26 288.579 1106.95 297.184L1093.81 295.57C1093.81 279.745 1095.43 265.072 1098.65 251.551C1101.88 238.03 1106.57 226.199 1112.71 216.059C1118.86 205.918 1126.54 198.082 1135.76 192.551C1145.13 186.866 1155.89 184.023 1168.02 184.023C1171.4 184.023 1175.01 184.331 1178.86 184.945C1182.85 185.406 1186 186.098 1188.3 187.02ZM1286.25 188.633V438H1225.18V188.633H1286.25ZM1221.03 123.41C1221.03 114.345 1224.1 106.816 1230.25 100.824C1236.55 94.832 1245 91.8359 1255.6 91.8359C1266.2 91.8359 1274.58 94.832 1280.72 100.824C1287.02 106.816 1290.17 114.345 1290.17 123.41C1290.17 132.322 1287.02 139.773 1280.72 145.766C1274.58 151.758 1266.2 154.754 1255.6 154.754C1245 154.754 1236.55 151.758 1230.25 145.766C1224.1 139.773 1221.03 132.322 1221.03 123.41ZM1599.46 315.852V311.012C1599.46 292.728 1602.07 275.904 1607.3 260.539C1612.52 245.021 1620.13 231.577 1630.11 220.207C1640.1 208.837 1652.32 200.003 1666.76 193.703C1681.2 187.25 1697.64 184.023 1716.08 184.023C1734.82 184.023 1751.42 187.25 1765.86 193.703C1780.46 200.003 1792.75 208.837 1802.73 220.207C1812.72 231.577 1820.33 245.021 1825.55 260.539C1830.77 275.904 1833.39 292.728 1833.39 311.012V315.852C1833.39 333.982 1830.77 350.806 1825.55 366.324C1820.33 381.689 1812.72 395.133 1802.73 406.656C1792.75 418.026 1780.53 426.861 1766.09 433.16C1751.65 439.46 1735.13 442.609 1716.54 442.609C1698.1 442.609 1681.58 439.46 1666.99 433.16C1652.39 426.861 1640.1 418.026 1630.11 406.656C1620.13 395.133 1612.52 381.689 1607.3 366.324C1602.07 350.806 1599.46 333.982 1599.46 315.852ZM1660.3 311.012V315.852C1660.3 326.76 1661.38 336.978 1663.53 346.504C1665.68 356.03 1668.99 364.404 1673.44 371.625C1677.9 378.846 1683.66 384.531 1690.73 388.68C1697.95 392.674 1706.55 394.672 1716.54 394.672C1726.37 394.672 1734.82 392.674 1741.89 388.68C1748.96 384.531 1754.72 378.846 1759.18 371.625C1763.79 364.404 1767.17 356.03 1769.32 346.504C1771.47 336.978 1772.54 326.76 1772.54 315.852V311.012C1772.54 300.257 1771.47 290.193 1769.32 280.82C1767.17 271.294 1763.79 262.921 1759.18 255.699C1754.72 248.324 1748.88 242.562 1741.66 238.414C1734.59 234.112 1726.07 231.961 1716.08 231.961C1706.24 231.961 1697.79 234.112 1690.73 238.414C1683.66 242.562 1677.9 248.324 1673.44 255.699C1668.99 262.921 1665.68 271.294 1663.53 280.82C1661.38 290.193 1660.3 300.257 1660.3 311.012ZM1920.27 188.633L1964.75 267.914L2009.93 188.633H2076.07L2002.78 310.781L2079.07 438H2012.92L1965.21 354.801L1917.28 438H1851.13L1927.19 310.781L1854.36 188.633H1920.27Z" fill="#002540"/>
<path d="M1493.91 384.992V84H1555.21V438H1499.9L1493.91 384.992ZM1333.73 316.312V311.473C1333.73 292.421 1335.88 275.135 1340.18 259.617C1344.64 243.945 1351.09 230.501 1359.54 219.285C1367.99 208.069 1378.21 199.388 1390.2 193.242C1402.33 187.096 1416.08 184.023 1431.45 184.023C1446.35 184.023 1459.34 187.02 1470.4 193.012C1481.61 199.004 1491.14 207.531 1498.98 218.594C1506.97 229.656 1513.34 242.793 1518.11 258.004C1522.87 273.061 1526.33 289.655 1528.48 307.785V320.922C1526.33 338.591 1522.87 354.801 1518.11 369.551C1513.34 384.301 1506.97 397.207 1498.98 408.27C1491.14 419.178 1481.61 427.629 1470.4 433.621C1459.18 439.613 1446.05 442.609 1430.99 442.609C1415.78 442.609 1402.1 439.46 1389.96 433.16C1377.98 426.861 1367.76 418.026 1359.31 406.656C1351.02 395.286 1344.64 381.919 1340.18 366.555C1335.88 351.19 1333.73 334.443 1333.73 316.312ZM1394.8 311.473V316.312C1394.8 327.068 1395.73 337.132 1397.57 346.504C1399.41 355.876 1402.41 364.173 1406.56 371.395C1410.71 378.462 1416.01 383.993 1422.46 387.988C1429.07 391.983 1437.06 393.98 1446.43 393.98C1458.41 393.98 1468.25 391.368 1475.93 386.145C1483.77 380.767 1489.83 373.469 1494.14 364.25C1498.44 354.878 1501.2 344.353 1502.43 332.676V296.492C1501.82 287.273 1500.21 278.746 1497.59 270.91C1495.14 263.074 1491.6 256.314 1486.99 250.629C1482.54 244.944 1477.01 240.488 1470.4 237.262C1463.79 234.035 1455.96 232.422 1446.89 232.422C1437.52 232.422 1429.53 234.496 1422.92 238.645C1416.32 242.639 1410.94 248.247 1406.79 255.469C1402.64 262.69 1399.57 271.064 1397.57 280.59C1395.73 290.116 1394.8 300.41 1394.8 311.473Z" fill="#57CC98"/>
</svg>
